<svg viewBox="0 0 24 24" xmlns="http://www.w3.org/2000/svg">
  <path fill="#00d26a" d="M8.691 2.188C3.891 2.188 0 5.476 0 9.53c0 2.212 1.17 4.203 3.002 5.55a.59.59 0 0 1 .213.665l-.39 1.48c-.019.07-.048.141-.048.213 0 .163.13.295.29.295a.326.326 0 0 0 .167-.054l1.903-1.114a.864.864 0 0 1 .717-.098 10.16 10.16 0 0 0 2.837.403c.276 0 .543-.027.811-.05-.857-2.578.157-4.972 1.932-6.446 1.703-1.415 3.882-1.98 5.853-1.838-.576-3.583-4.196-6.348-8.596-6.348zM5.785 5.991c.642 0 1.162.529 1.162 1.18 0 .659-.52 1.180-1.162 1.180-.642 0-1.162-.521-1.162-1.18 0-.651.52-1.18 1.162-1.18zm5.813 0c.642 0 1.162.529 1.162 1.18 0 .659-.52 1.180-1.162 1.180-.642 0-1.162-.521-1.162-1.18 0-.651.52-1.18 1.162-1.18zm5.34 2.867c-1.797-.052-3.746.512-5.28 1.786-1.72 1.428-2.687 3.72-1.78 6.22.942 2.453 3.666 4.229 6.884 4.229.826 0 1.622-.12 2.361-.336a.722.722 0 0 1 .598.082l1.584.926a.272.272 0 0 0 .14.047c.134 0 .24-.111.24-.247 0-.06-.023-.12-.038-.177l-.327-1.233a.582.582 0 0 1 .108-.574c1.523-1.12 2.497-2.907 2.497-4.911 0-3.34-3.186-5.983-6.987-5.983zm-2.53 3.274c.535 0 .969.441.969.987 0 .546-.434.987-.969.987-.535 0-.969-.441-.969-.987 0-.546.434-.987.969-.987zm5.061 0c.535 0 .969.441.969.987 0 .546-.434.987-.969.987-.535 0-.969-.441-.969-.987 0-.546.434-.987.969-.987z"/>
</svg>